<svg width="275.53" height="275.53" version="1.0" viewBox="0 0 38.124 38.135" xmlns="http://www.w3.org/2000/svg"><path d="m28.896 8.6504e-7c-0.82125 0-1.1775 0.51751-1.4725 1.0475 0 0-11.849 21.013-12.239 21.703 0.02 0.0375 7.8148 14.338 7.8148 14.338 0.2725 0.4875 0.69376 1.0475 1.5363 1.0475h5.4938c0.33125 0 0.58988-0.12517 0.72988-0.35142 0.14625-0.235 0.14262-0.5449-0.01109-0.8499l-7.7537-14.166c-7e-3 -0.0112-7e-3 -0.02475 0-0.03595l12.178-21.531c0.1525-0.30375 0.15614-0.61355 0.011072-0.84855-0.13998-0.22625-0.39997-0.35142-0.73122-0.35142zm-23.106 7.5313c-0.33125 1e-7 -0.61015 0.11635-0.75015 0.34385-0.145 0.235-0.12234 0.53744 0.031357 0.84369l3.7186 6.4375c0.00599 0.0125 0.00599 0.01984 0 0.03109l-5.8436 10.313c-0.1525 0.30375-0.145 0.60869 0 0.84369 0.14 0.22625 0.38755 0.37494 0.7188 0.37494h5.4998c0.8225 0 1.2188-0.55488 1.5-1.0624 0 0 5.7152-10.107 5.9377-10.5-0.0225-0.03625-3.7813-6.5938-3.7813-6.5938-0.27375-0.4875-0.68764-1.0313-1.5314-1.0313z" fill="#fff"/></svg>
